<svg width="696" height="96" viewBox="0 0 696 96" fill="none" xmlns="http://www.w3.org/2000/svg">
<path d="M27.995 8.5V40H23.495V25.96H5.405V40H0.905V8.5H5.405V22.045H23.495V8.5H27.995ZM51.9941 40.36C48.8141 40.36 45.9491 39.67 43.3991 38.29C40.8491 36.88 38.8391 34.945 37.3691 32.485C35.9291 30.025 35.2091 27.28 35.2091 24.25C35.2091 21.22 35.9291 18.475 37.3691 16.015C38.8391 13.555 40.8491 11.635 43.3991 10.255C45.9491 8.845 48.8141 8.14 51.9941 8.14C55.1441 8.14 57.9941 8.845 60.5441 10.255C63.0941 11.635 65.0891 13.555 66.5291 16.015C67.9691 18.445 68.6891 21.19 68.6891 24.25C68.6891 27.31 67.9691 30.07 66.5291 32.53C65.0891 34.96 63.0941 36.88 60.5441 38.29C57.9941 39.67 55.1441 40.36 51.9941 40.36ZM51.9941 36.355C54.3041 36.355 56.3741 35.83 58.2041 34.78C60.0641 33.73 61.5191 32.29 62.5691 30.46C63.6491 28.6 64.1891 26.53 64.1891 24.25C64.1891 21.97 63.6491 19.915 62.5691 18.085C61.5191 16.225 60.0641 14.77 58.2041 13.72C56.3741 12.67 54.3041 12.145 51.9941 12.145C49.6841 12.145 47.5841 12.67 45.6941 13.72C43.8341 14.77 42.3641 16.225 41.2841 18.085C40.2341 19.915 39.7091 21.97 39.7091 24.25C39.7091 26.53 40.2341 28.6 41.2841 30.46C42.3641 32.29 43.8341 33.73 45.6941 34.78C47.5841 35.83 49.6841 36.355 51.9941 36.355ZM95.5836 23.665C97.7136 24.175 99.3186 25.09 100.399 26.41C101.509 27.7 102.064 29.365 102.064 31.405C102.064 34.135 101.059 36.25 99.0486 37.75C97.0686 39.25 94.1736 40 90.3636 40H75.9636V8.5H89.5086C92.9586 8.5 95.6436 9.205 97.5636 10.615C99.5136 11.995 100.489 13.99 100.489 16.6C100.489 18.31 100.054 19.765 99.1836 20.965C98.3436 22.165 97.1436 23.065 95.5836 23.665ZM80.4186 22.36H89.1936C91.3836 22.36 93.0486 21.925 94.1886 21.055C95.3586 20.185 95.9436 18.91 95.9436 17.23C95.9436 15.55 95.3586 14.275 94.1886 13.405C93.0186 12.505 91.3536 12.055 89.1936 12.055H80.4186V22.36ZM90.2736 36.445C95.1036 36.445 97.5186 34.645 97.5186 31.045C97.5186 29.245 96.9036 27.925 95.6736 27.085C94.4736 26.215 92.6736 25.78 90.2736 25.78H80.4186V36.445H90.2736ZM123.397 19.48C127.147 19.48 130.012 20.32 131.992 22C134.002 23.68 135.007 26.155 135.007 29.425C135.007 32.875 133.927 35.5 131.767 37.3C129.637 39.1 126.577 40 122.587 40H109.582V8.5H114.037V19.48H123.397ZM122.407 36.445C125.017 36.445 127.012 35.86 128.392 34.69C129.802 33.49 130.507 31.765 130.507 29.515C130.507 25.195 127.807 23.035 122.407 23.035H114.037V36.445H122.407ZM140.002 8.5H144.457V40H140.002V8.5ZM154.274 8.5H158.729V32.8L177.359 8.5H181.499V40H177.089V15.745L158.414 40H154.274V8.5ZM167.819 6.295C165.359 6.295 163.454 5.77 162.104 4.72C160.784 3.64 160.109 2.11 160.079 0.129998H163.274C163.304 1.3 163.709 2.215 164.489 2.875C165.299 3.505 166.409 3.82 167.819 3.82C169.169 3.82 170.249 3.505 171.059 2.875C171.899 2.215 172.334 1.3 172.364 0.129998H175.514C175.484 2.08 174.794 3.595 173.444 4.675C172.124 5.755 170.249 6.295 167.819 6.295ZM212.09 8.14C215.09 8.14 217.79 8.845 220.19 10.255C222.59 11.635 224.48 13.555 225.86 16.015C227.24 18.445 227.93 21.19 227.93 24.25C227.93 27.31 227.24 30.07 225.86 32.53C224.48 34.96 222.59 36.88 220.19 38.29C217.79 39.67 215.09 40.36 212.09 40.36C209.51 40.36 207.17 39.94 205.07 39.1C202.97 38.26 201.215 37.03 199.805 35.41L202.64 32.575C205.01 35.065 208.085 36.31 211.865 36.31C213.875 36.31 215.705 35.875 217.355 35.005C219.005 34.105 220.355 32.86 221.405 31.27C222.455 29.68 223.085 27.865 223.295 25.825H208.04V22.135H223.25C222.95 20.185 222.275 18.46 221.225 16.96C220.175 15.46 218.84 14.29 217.22 13.45C215.6 12.61 213.815 12.19 211.865 12.19C208.115 12.19 205.04 13.435 202.64 15.925L199.805 13.09C201.215 11.47 202.97 10.24 205.07 9.4C207.2 8.56 209.54 8.14 212.09 8.14ZM246.201 26.14H239.631V40H235.221V8.5H239.631V22.18H246.291L256.191 8.5H261.006L249.756 23.755L261.546 40H256.416L246.201 26.14ZM280.246 40.36C277.066 40.36 274.201 39.67 271.651 38.29C269.101 36.88 267.091 34.945 265.621 32.485C264.181 30.025 263.461 27.28 263.461 24.25C263.461 21.22 264.181 18.475 265.621 16.015C267.091 13.555 269.101 11.635 271.651 10.255C274.201 8.845 277.066 8.14 280.246 8.14C283.396 8.14 286.246 8.845 288.796 10.255C291.346 11.635 293.341 13.555 294.781 16.015C296.221 18.445 296.941 21.19 296.941 24.25C296.941 27.31 296.221 30.07 294.781 32.53C293.341 34.96 291.346 36.88 288.796 38.29C286.246 39.67 283.396 40.36 280.246 40.36ZM280.246 36.355C282.556 36.355 284.626 35.83 286.456 34.78C288.316 33.73 289.771 32.29 290.821 30.46C291.901 28.6 292.441 26.53 292.441 24.25C292.441 21.97 291.901 19.915 290.821 18.085C289.771 16.225 288.316 14.77 286.456 13.72C284.626 12.67 282.556 12.145 280.246 12.145C277.936 12.145 275.836 12.67 273.946 13.72C272.086 14.77 270.616 16.225 269.536 18.085C268.486 19.915 267.961 21.97 267.961 24.25C267.961 26.53 268.486 28.6 269.536 30.46C270.616 32.29 272.086 33.73 273.946 34.78C275.836 35.83 277.936 36.355 280.246 36.355ZM302.183 25.78H314.288V29.515H302.183V25.78ZM336.232 40.36C333.052 40.36 330.187 39.67 327.637 38.29C325.087 36.88 323.077 34.945 321.607 32.485C320.167 30.025 319.447 27.28 319.447 24.25C319.447 21.22 320.167 18.475 321.607 16.015C323.077 13.555 325.087 11.635 327.637 10.255C330.187 8.845 333.052 8.14 336.232 8.14C339.382 8.14 342.232 8.845 344.782 10.255C347.332 11.635 349.327 13.555 350.767 16.015C352.207 18.445 352.927 21.19 352.927 24.25C352.927 27.31 352.207 30.07 350.767 32.53C349.327 34.96 347.332 36.88 344.782 38.29C342.232 39.67 339.382 40.36 336.232 40.36ZM336.232 36.355C338.542 36.355 340.612 35.83 342.442 34.78C344.302 33.73 345.757 32.29 346.807 30.46C347.887 28.6 348.427 26.53 348.427 24.25C348.427 21.97 347.887 19.915 346.807 18.085C345.757 16.225 344.302 14.77 342.442 13.72C340.612 12.67 338.542 12.145 336.232 12.145C333.922 12.145 331.822 12.67 329.932 13.72C328.072 14.77 326.602 16.225 325.522 18.085C324.472 19.915 323.947 21.97 323.947 24.25C323.947 26.53 324.472 28.6 325.522 30.46C326.602 32.29 328.072 33.73 329.932 34.78C331.822 35.83 333.922 36.355 336.232 36.355ZM381.407 12.415H370.607V40H366.197V12.415H355.442V8.5H381.407V12.415ZM409.737 36.085V40H386.877V8.5H409.107V12.415H391.377V22.09H407.172V25.915H391.377V36.085H409.737ZM442.543 8.5V40H438.133V12.415H424.183L423.868 21.64C423.718 25.99 423.358 29.515 422.788 32.215C422.248 34.915 421.378 36.955 420.178 38.335C418.978 39.685 417.358 40.36 415.318 40.36C414.388 40.36 413.443 40.24 412.483 40L412.798 35.995C413.278 36.115 413.758 36.175 414.238 36.175C415.528 36.175 416.563 35.665 417.343 34.645C418.123 33.595 418.708 32.035 419.098 29.965C419.488 27.895 419.743 25.165 419.863 21.775L420.358 8.5H442.543ZM466.17 19.48C469.92 19.48 472.785 20.32 474.765 22C476.775 23.68 477.78 26.155 477.78 29.425C477.78 32.875 476.7 35.5 474.54 37.3C472.41 39.1 469.35 40 465.36 40H452.355V8.5H456.81V19.48H466.17ZM465.18 36.445C467.79 36.445 469.785 35.86 471.165 34.69C472.575 33.49 473.28 31.765 473.28 29.515C473.28 25.195 470.58 23.035 465.18 23.035H456.81V36.445H465.18ZM525.545 40L525.5 17.05L514.115 36.175H512.045L500.66 17.185V40H496.34V8.5H500.03L513.17 30.64L526.13 8.5H529.82L529.865 40H525.545ZM559.389 32.125H542.649L539.184 40H534.549L548.814 8.5H553.269L567.579 40H562.854L559.389 32.125ZM557.814 28.525L551.019 13.09L544.224 28.525H557.814ZM581.458 40.36C579.088 40.36 576.793 40 574.573 39.28C572.383 38.53 570.658 37.57 569.398 36.4L571.063 32.89C572.263 33.97 573.793 34.855 575.653 35.545C577.543 36.205 579.478 36.535 581.458 36.535C584.068 36.535 586.018 36.1 587.308 35.23C588.598 34.33 589.243 33.145 589.243 31.675C589.243 30.595 588.883 29.725 588.163 29.065C587.473 28.375 586.603 27.85 585.553 27.49C584.533 27.13 583.078 26.725 581.188 26.275C578.818 25.705 576.898 25.135 575.428 24.565C573.988 23.995 572.743 23.125 571.693 21.955C570.673 20.755 570.163 19.15 570.163 17.14C570.163 15.46 570.598 13.945 571.468 12.595C572.368 11.245 573.718 10.165 575.518 9.355C577.318 8.545 579.553 8.14 582.223 8.14C584.083 8.14 585.913 8.38 587.713 8.86C589.513 9.34 591.058 10.03 592.348 10.93L590.863 14.53C589.543 13.69 588.133 13.06 586.633 12.64C585.133 12.19 583.663 11.965 582.223 11.965C579.673 11.965 577.753 12.43 576.463 13.36C575.203 14.29 574.573 15.49 574.573 16.96C574.573 18.04 574.933 18.925 575.653 19.615C576.373 20.275 577.258 20.8 578.308 21.19C579.388 21.55 580.843 21.94 582.673 22.36C585.043 22.93 586.948 23.5 588.388 24.07C589.828 24.64 591.058 25.51 592.078 26.68C593.128 27.85 593.653 29.425 593.653 31.405C593.653 33.055 593.203 34.57 592.303 35.95C591.403 37.3 590.038 38.38 588.208 39.19C586.378 39.97 584.128 40.36 581.458 40.36ZM606.043 12.415H595.243V8.5H621.298V12.415H610.498V40H606.043V12.415ZM626.199 8.5H630.699V40H626.199V8.5ZM640.129 8.5H644.629V36.085H661.684V40H640.129V8.5ZM687.05 32.125H670.31L666.845 40H662.21L676.475 8.5H680.93L695.24 40H690.515L687.05 32.125ZM685.475 28.525L678.68 13.09L671.885 28.525H685.475ZM27.995 63.5V95H23.495V80.96H5.405V95H0.905V63.5H5.405V77.045H23.495V63.5H27.995ZM58.2941 87.125H41.5541L38.0891 95H33.4541L47.7191 63.5H52.1741L66.4841 95H61.7591L58.2941 87.125ZM56.7191 83.525L49.9241 68.09L43.1291 83.525H56.7191ZM98.1806 95.36C95.0006 95.36 92.1356 94.67 89.5856 93.29C87.0356 91.88 85.0256 89.945 83.5556 87.485C82.1156 85.025 81.3956 82.28 81.3956 79.25C81.3956 76.22 82.1156 73.475 83.5556 71.015C85.0256 68.555 87.0356 66.635 89.5856 65.255C92.1356 63.845 95.0006 63.14 98.1806 63.14C101.331 63.14 104.181 63.845 106.731 65.255C109.281 66.635 111.276 68.555 112.716 71.015C114.156 73.445 114.876 76.19 114.876 79.25C114.876 82.31 114.156 85.07 112.716 87.53C111.276 89.96 109.281 91.88 106.731 93.29C104.181 94.67 101.331 95.36 98.1806 95.36ZM98.1806 91.355C100.491 91.355 102.561 90.83 104.391 89.78C106.251 88.73 107.706 87.29 108.756 85.46C109.836 83.6 110.376 81.53 110.376 79.25C110.376 76.97 109.836 74.915 108.756 73.085C107.706 71.225 106.251 69.77 104.391 68.72C102.561 67.67 100.491 67.145 98.1806 67.145C95.8706 67.145 93.7706 67.67 91.8806 68.72C90.0206 69.77 88.5506 71.225 87.4706 73.085C86.4206 74.915 85.8956 76.97 85.8956 79.25C85.8956 81.53 86.4206 83.6 87.4706 85.46C88.5506 87.29 90.0206 88.73 91.8806 89.78C93.7706 90.83 95.8706 91.355 98.1806 91.355ZM121.496 95.27C120.656 95.27 119.936 94.985 119.336 94.415C118.736 93.815 118.436 93.065 118.436 92.165C118.436 91.295 118.736 90.575 119.336 90.005C119.936 89.405 120.656 89.105 121.496 89.105C122.336 89.105 123.041 89.39 123.611 89.96C124.181 90.53 124.466 91.265 124.466 92.165C124.466 93.065 124.166 93.815 123.566 94.415C122.996 94.985 122.306 95.27 121.496 95.27ZM145.351 63.5L153.586 75.02L161.821 63.5H167.086L156.421 78.62L167.941 95H162.631L153.586 82.445L144.586 95H139.411L150.886 78.8L140.176 63.5H145.351ZM192.175 78.665C194.305 79.175 195.91 80.09 196.99 81.41C198.1 82.7 198.655 84.365 198.655 86.405C198.655 89.135 197.65 91.25 195.64 92.75C193.66 94.25 190.765 95 186.955 95H172.555V63.5H186.1C189.55 63.5 192.235 64.205 194.155 65.615C196.105 66.995 197.08 68.99 197.08 71.6C197.08 73.31 196.645 74.765 195.775 75.965C194.935 77.165 193.735 78.065 192.175 78.665ZM177.01 77.36H185.785C187.975 77.36 189.64 76.925 190.78 76.055C191.95 75.185 192.535 73.91 192.535 72.23C192.535 70.55 191.95 69.275 190.78 68.405C189.61 67.505 187.945 67.055 185.785 67.055H177.01V77.36ZM186.865 91.445C191.695 91.445 194.11 89.645 194.11 86.045C194.11 84.245 193.495 82.925 192.265 82.085C191.065 81.215 189.265 80.78 186.865 80.78H177.01V91.445H186.865ZM226.649 87.125H209.909L206.444 95H201.809L216.074 63.5H220.529L234.839 95H230.114L226.649 87.125ZM225.074 83.525L218.279 68.09L211.484 83.525H225.074ZM252.56 63.5C256.64 63.5 259.85 64.475 262.19 66.425C264.53 68.375 265.7 71.06 265.7 74.48C265.7 77.9 264.53 80.585 262.19 82.535C259.85 84.485 256.64 85.46 252.56 85.46H244.775V95H240.275V63.5H252.56ZM252.425 81.545C255.275 81.545 257.45 80.945 258.95 79.745C260.45 78.515 261.2 76.76 261.2 74.48C261.2 72.2 260.45 70.46 258.95 69.26C257.45 68.03 255.275 67.415 252.425 67.415H244.775V81.545H252.425ZM304.104 78.665C306.234 79.175 307.839 80.09 308.919 81.41C310.029 82.7 310.584 84.365 310.584 86.405C310.584 89.135 309.579 91.25 307.569 92.75C305.589 94.25 302.694 95 298.884 95H284.484V63.5H298.029C301.479 63.5 304.164 64.205 306.084 65.615C308.034 66.995 309.009 68.99 309.009 71.6C309.009 73.31 308.574 74.765 307.704 75.965C306.864 77.165 305.664 78.065 304.104 78.665ZM288.939 77.36H297.714C299.904 77.36 301.569 76.925 302.709 76.055C303.879 75.185 304.464 73.91 304.464 72.23C304.464 70.55 303.879 69.275 302.709 68.405C301.539 67.505 299.874 67.055 297.714 67.055H288.939V77.36ZM298.794 91.445C303.624 91.445 306.039 89.645 306.039 86.045C306.039 84.245 305.424 82.925 304.194 82.085C302.994 81.215 301.194 80.78 298.794 80.78H288.939V91.445H298.794ZM331.987 63.5L340.222 75.02L348.457 63.5H353.722L343.057 78.62L354.577 95H349.267L340.222 82.445L331.222 95H326.047L337.522 78.8L326.812 63.5H331.987ZM373.278 95.36C370.098 95.36 367.233 94.67 364.683 93.29C362.133 91.88 360.123 89.945 358.653 87.485C357.213 85.025 356.493 82.28 356.493 79.25C356.493 76.22 357.213 73.475 358.653 71.015C360.123 68.555 362.133 66.635 364.683 65.255C367.233 63.845 370.098 63.14 373.278 63.14C376.428 63.14 379.278 63.845 381.828 65.255C384.378 66.635 386.373 68.555 387.813 71.015C389.253 73.445 389.973 76.19 389.973 79.25C389.973 82.31 389.253 85.07 387.813 87.53C386.373 89.96 384.378 91.88 381.828 93.29C379.278 94.67 376.428 95.36 373.278 95.36ZM373.278 91.355C375.588 91.355 377.658 90.83 379.488 89.78C381.348 88.73 382.803 87.29 383.853 85.46C384.933 83.6 385.473 81.53 385.473 79.25C385.473 76.97 384.933 74.915 383.853 73.085C382.803 71.225 381.348 69.77 379.488 68.72C377.658 67.67 375.588 67.145 373.278 67.145C370.968 67.145 368.868 67.67 366.978 68.72C365.118 69.77 363.648 71.225 362.568 73.085C361.518 74.915 360.993 76.97 360.993 79.25C360.993 81.53 361.518 83.6 362.568 85.46C363.648 87.29 365.118 88.73 366.978 89.78C368.868 90.83 370.968 91.355 373.278 91.355ZM409.533 63.5C413.613 63.5 416.823 64.475 419.163 66.425C421.503 68.375 422.673 71.06 422.673 74.48C422.673 77.9 421.503 80.585 419.163 82.535C416.823 84.485 413.613 85.46 409.533 85.46H401.748V95H397.248V63.5H409.533ZM409.398 81.545C412.248 81.545 414.423 80.945 415.923 79.745C417.423 78.515 418.173 76.76 418.173 74.48C418.173 72.2 417.423 70.46 415.923 69.26C414.423 68.03 412.248 67.415 409.398 67.415H401.748V81.545H409.398ZM448.552 78.665C450.682 79.175 452.287 80.09 453.367 81.41C454.477 82.7 455.032 84.365 455.032 86.405C455.032 89.135 454.027 91.25 452.017 92.75C450.037 94.25 447.142 95 443.332 95H428.932V63.5H442.477C445.927 63.5 448.612 64.205 450.532 65.615C452.482 66.995 453.457 68.99 453.457 71.6C453.457 73.31 453.022 74.765 452.152 75.965C451.312 77.165 450.112 78.065 448.552 78.665ZM433.387 77.36H442.162C444.352 77.36 446.017 76.925 447.157 76.055C448.327 75.185 448.912 73.91 448.912 72.23C448.912 70.55 448.327 69.275 447.157 68.405C445.987 67.505 444.322 67.055 442.162 67.055H433.387V77.36ZM443.242 91.445C448.072 91.445 450.487 89.645 450.487 86.045C450.487 84.245 449.872 82.925 448.642 82.085C447.442 81.215 445.642 80.78 443.242 80.78H433.387V91.445H443.242ZM483.026 87.125H466.286L462.821 95H458.186L472.451 63.5H476.906L491.216 95H486.491L483.026 87.125ZM481.451 83.525L474.656 68.09L467.861 83.525H481.451ZM516.715 67.415H505.915V95H501.505V67.415H490.75V63.5H516.715V67.415ZM522.184 63.5H526.639V87.8L545.269 63.5H549.409V95H544.999V70.745L526.324 95H522.184V63.5ZM559.23 63.5H563.685V87.8L582.315 63.5H586.455V95H582.045V70.745L563.37 95H559.23V63.5Z" fill="white"/>
</svg>
